<svg width="100" height="100" viewBox="0 0 100 100" fill="none" xmlns="http://www.w3.org/2000/svg">
<g clip-path="url(#clip0_125_480)">
<rect width="100" height="100" rx="18.5874" fill="black"/>
<path d="M64.0138 36.6191C68.3952 36.7025 70.2512 42.3038 65.1932 44.0399C61.4251 44.2617 60.8419 41.8557 61.3059 38.6113C62.3258 37.4916 62.6562 37.2326 64.0138 36.6191Z" fill="black"/>
<path d="M34.7441 36.6714C36.6646 36.3309 38.4839 37.6898 38.813 39.71C39.1407 41.7302 37.8542 43.6499 35.9352 43.9994C34.7427 44.2169 33.5274 43.7774 32.7154 42.8325C31.8492 41.8262 31.5728 40.4029 31.9959 39.1191C32.419 37.8367 33.4719 36.8979 34.7441 36.6714Z" fill="black"/>
<path d="M37.719 72.0299C39.0372 70.605 40.611 68.9843 41.7888 67.4312L50.1528 61.6651L57.6601 61.4468C57.4965 63.5289 61.7342 75.3729 61.6981 77.5158C62.154 77.0628 63.0658 76.3318 63.567 75.9876C65.9954 74.3365 68.8384 73.8223 71.4833 74.5554C72.8167 74.9328 73.9331 75.9251 74.58 77.3075C75.2967 78.8451 75.3771 80.3207 74.9127 82.0281C73.8912 85.7844 71.5792 88.6365 68.624 90.5357C66.125 92.1415 61.7077 93.9276 58.9822 93.0828C58.078 92.7956 56.4567 92.015 55.9204 91.1399C55.1385 89.8648 54.5613 88.8907 54.1469 87.3736C53.3686 84.4709 53.3459 86.0793 52.7439 77.9085C52.8102 75.0919 52.9961 69.1199 52.9088 66.782C52.1044 67.8121 48.6686 72.1053 47.7896 73.7937L43.7186 79.5555C45.2316 79.4947 47.0626 79.5314 48.354 80.4535C49.2813 81.1277 49.9192 82.2144 50.1273 83.4755C50.2332 83.8294 50.3132 84.6855 50.3258 85.0634C50.4307 88.2051 49.4337 91.7462 46.8974 93.4764C45.8189 94.2126 44.2654 94.598 43.01 94.7341C37.9909 95.3115 33.0817 93.5835 29.3502 89.9257C28.3222 88.8994 27.4875 87.705 27.4333 86.0333C27.4046 85.1165 27.6099 84.1963 28.0241 83.3859C28.6301 82.2147 30.2471 80.3005 31.0794 79.3156C33.2057 76.7997 35.4975 74.4306 37.719 72.0299Z" fill="white"/>
<path d="M25.2815 30.5666C25.6441 30.6182 25.869 30.0928 25.5864 29.8598C23.1701 27.868 21.5484 25.4469 21.0444 22.6545C20.3641 19.1251 21.516 15.5212 24.2422 12.6488C26.8514 9.91783 30.7518 8.12575 35.0552 7.68041C40.5681 7.11357 44.9544 9.44386 49.0355 11.908C49.1016 11.9479 49.1793 11.964 49.2559 11.9535L49.6641 11.8975C49.7772 11.882 49.8729 11.8099 49.9313 11.7118C50.7042 10.4132 53.3609 9.13558 54.9428 8.55183C63.274 5.47733 72.1015 8.67608 75.6217 15.0543C77.4169 18.3043 77.4637 21.9922 75.7515 25.2845C74.8719 26.99 73.8277 28.1868 72.3742 29.4156C72.1074 29.6412 72.3057 30.099 72.652 30.0534C78.3434 29.3036 83.6958 29.6535 88.1602 33.0995C88.1743 33.1104 88.1896 33.1204 88.2051 33.1289C94.9326 36.8336 95.4063 45.4019 90.8735 50.5016C88.6438 53.0434 85.3883 54.9193 81.641 55.8268C81.4786 55.8662 81.3675 56.017 81.3778 56.1837C81.627 60.2197 80.6407 63.7049 77.0957 66.8558C74.3594 69.31 72.2572 70.905 68.1242 71.1594C66.1317 71.2671 64.5824 71.0823 61.0405 69.4728C57.7759 67.9894 53.6996 61.9918 52.509 57.7058C52.4204 57.3871 51.9326 57.3204 51.7644 57.6052C49.4075 61.5961 43.2088 67.6787 38.7227 69.4728C35.1404 70.8919 32.2895 71.8779 28.5005 70.8789C24.3706 69.7951 20.9698 67.4623 19.0499 64.3964C18.0021 62.7282 16.7577 59.3144 17.4723 57.5087C17.4921 57.4587 17.5023 57.4056 17.4951 57.3522C17.4647 57.1259 17.359 56.7067 17.1377 56.6504C8.17592 54.367 2.58735 48.0815 5.03045 40.4013C6.14562 36.9784 8.95444 34.0395 12.8321 32.2381C16.7957 30.3763 20.9323 29.9475 25.2815 30.5666Z" fill="white"/>
<rect x="44.3433" y="56.4863" width="10.1195" height="9.10751" fill="white"/>
<path fill-rule="evenodd" clip-rule="evenodd" d="M45.6929 25.6221C49.2323 25.6223 52.1021 31.512 52.1021 38.7773C52.102 46.0426 49.2323 51.9323 45.6929 51.9326C42.2373 51.9326 39.4213 46.3188 39.2896 39.292C41.4308 38.8166 43.9097 38.7264 46.1079 39.1299C47.0121 39.2956 47.8949 38.5389 47.4956 37.7109C46.0273 34.6668 42.4111 34.0327 39.686 34.1816C40.5942 29.1824 42.9408 25.6221 45.6929 25.6221Z" fill="black"/>
<path fill-rule="evenodd" clip-rule="evenodd" d="M63.2471 25.6216C66.7865 25.6219 69.6562 31.5116 69.6562 38.7769C69.6562 46.0422 66.7865 51.9319 63.2471 51.9321C59.7916 51.9321 56.9756 46.319 56.8438 39.2925C58.985 38.8171 61.4639 38.7259 63.6621 39.1294C64.5663 39.2952 65.4491 38.5394 65.0498 37.7114C63.5816 34.6669 59.9654 34.0322 57.2402 34.1812C58.1484 29.1821 60.4951 25.6216 63.2471 25.6216Z" fill="black"/>
</g>
<defs>
<clipPath id="clip0_125_480">
<rect width="100" height="100" rx="18.5874" fill="white"/>
</clipPath>
</defs>
</svg>
